<svg width="317" height="317" viewBox="0 0 317 317" fill="none" xmlns="http://www.w3.org/2000/svg">
    <g clip-path="url(#clip0_477_2)">
        <path d="M158.693 316.089C161.169 316.089 163.646 315.448 165.864 314.167L290.083 242.448C294.521 239.885 297.255 235.151 297.255 230.026V86.5891C297.255 84.0264 296.571 81.5623 295.332 79.4175L158.693 158.308V316.089Z"
              fill="#F9F9F9"/>
        <path fill-rule="evenodd" clip-rule="evenodd"
              d="M290.084 74.1677C292.302 75.4491 294.095 77.2728 295.333 79.4176L158.692 158.308L22.0521 79.4176C23.2903 77.2734 25.0832 75.4491 27.302 74.1677L151.52 2.44938C155.958 -0.113334 161.426 -0.113334 165.864 2.44938L290.084 74.1677ZM158.692 316.089C156.215 316.089 153.739 315.448 151.52 314.167L27.3002 242.448C22.8626 239.887 20.1285 235.151 20.1285 230.027V86.5893C20.1285 84.0266 20.8127 81.5625 22.0509 79.4176L158.692 158.308V316.089Z"
              fill="#7033FF"/>
    </g>
    <defs>
        <clipPath id="clip0_477_2">
            <rect width="315.562" height="315.562" fill="white" transform="translate(0.910645 0.526855)"/>
        </clipPath>
    </defs>
</svg>
