<svg width="69" height="44" viewBox="0 0 69 44" fill="none" xmlns="http://www.w3.org/2000/svg">
<path d="M36.2354 41.2051C36.5477 42.4662 35.5932 43.6854 34.2939 43.6855H24.5801C23.6608 43.6855 22.8598 43.0593 22.6387 42.167L15.4805 13.2832H29.3154L36.2354 41.2051ZM59.7461 41.2129C60.0524 42.472 59.0986 43.6855 57.8027 43.6855H47.751C46.8286 43.6855 46.0258 43.0553 45.8076 42.1592L41.4678 24.3154C41.1616 23.0563 42.1153 21.8428 43.4111 21.8428H55.0342L59.7461 41.2129ZM62.3174 0C63.2398 0 64.0427 0.631023 64.2607 1.52734L68.6016 19.3701C68.9078 20.6292 67.954 21.8426 66.6582 21.8428H55.0342L50.3223 2.47266C50.0161 1.21365 50.97 0.000216915 52.2656 0H62.3174ZM10.4365 0C11.3446 6.945e-05 12.1385 0.612207 12.3701 1.49023L15.4805 13.2832H4.88965C4.01394 13.2832 3.23963 12.7131 2.97949 11.877L0.0917969 2.59375C-0.308387 1.30665 0.653123 0.000303126 2.00098 0H10.4365ZM36.3779 0C37.2839 9.36371e-05 38.077 0.609047 38.3105 1.48438L40.7852 10.7676C41.1237 12.0372 40.1674 13.283 38.8535 13.2832H29.3154L26.4746 2.50977C26.1402 1.2414 27.0965 0 28.4082 0H36.3779Z" fill="black"/>
</svg>
